# xmcd CD database file
#
# Track frame offsets:
#	150
#	26590
#	56505
#	84550
#	103900
#	139770
#	174230
#
# Disc length: 2746 seconds
#
# Revision: 0
# Processed by: cddbd v1.5.2PL0 Copyright (c) Steve Scherf et al.
# Submitted via: CDex 1.70beta3
#
DISCID=550ab807
DTITLE=Grupo Chevere - Grupo Chevere
DYEAR=1995
DGENRE=Salsa
TTITLE0=Cancha Duro'e Verda
TTITLE1=Pura Candela
TTITLE2=Bicicleta
TTITLE3=Apagon
TTITLE4=Cuidao Una Vez Mas
TTITLE5=Primavera
TTITLE6=Champola De Amor
EXTD=YEAR: 1995
EXTT0=
EXTT1=
EXTT2=
EXTT3=
EXTT4=
EXTT5=
EXTT6=
PLAYORDER=
